<svg width="1200" height="250" viewBox="0 0 1200 250" fill="none" xmlns="http://www.w3.org/2000/svg">
<path d="M66.6201 225.512C79.3424 225.512 89.618 222.674 97.4471 216.997C105.472 211.126 109.484 203.003 109.484 192.629C109.484 184.8 107.136 178.244 102.438 172.959C97.7407 167.674 91.8689 163.76 84.8227 161.215C77.9723 158.671 70.4368 155.833 62.2163 152.701C54.1914 149.57 46.656 146.34 39.6098 143.013C32.7593 139.685 26.9854 134.499 22.288 127.452C17.5905 120.406 15.2418 111.794 15.2418 101.616C15.2418 87.1326 20.4285 75.7805 30.8021 67.5599C41.3713 59.1437 55.3658 54.9355 72.7855 54.9355C92.3582 54.9355 109.191 59.8287 123.283 69.6151L117.118 79.3036C104.591 70.6916 90.3031 66.3856 74.2535 66.3856C62.5098 66.3856 53.1149 69.0279 46.0688 74.3125C39.0226 79.4014 35.4995 86.5454 35.4995 95.7446C35.4995 104.944 38.729 112.479 45.188 118.351C51.647 124.027 59.4761 128.431 68.6752 131.563C77.8744 134.499 87.0736 137.728 96.2727 141.251C105.668 144.774 113.595 150.352 120.054 157.986C126.513 165.423 129.742 175.112 129.742 187.051C129.742 202.709 124.066 214.942 112.714 223.75C101.557 232.558 86.4864 236.962 67.5009 236.962C42.8393 236.962 23.658 231.579 9.95715 220.814L16.4161 210.832C29.7256 220.618 46.4602 225.512 66.6201 225.512Z" fill="black"/>
<path d="M1173.71 9.95703L1171.31 24.7227H1032.28L1034.68 9.95703H1173.71Z" fill="black"/>
<path d="M367.322 234.027H341.78L325.329 198.003H222.592L206.141 234.027H193.222L272.884 63.3242H287.66L367.322 234.027ZM229.335 183.236L227.821 186.553H320.1L318.586 183.236L313.595 171.786L274.254 85.7646L229.335 183.236Z" fill="black"/>
<path d="M672.28 234.026H648.539L622.218 77.1391L548.484 239.147H543.189L469.786 73.9912L443.808 234.026H432.359L464.451 36.668H476.468L551.806 205.45L627.789 36.668H639.869L672.28 234.026Z" fill="black"/>
<path d="M1190.04 234.026H1164.5L1141.31 183.235L1136.32 171.784L1096.97 85.7619L1057.34 171.784L1052.06 183.235L1028.86 234.026H1015.94L1095.6 63.3242H1110.38L1190.04 234.026Z" fill="black"/>
<path d="M954.202 234.026H932.183L909.87 101.029L847.335 238.429H841.757L779.516 98.3863L757.497 234.026H746.046L773.803 63.3242H785.677L849.684 206.721L914.24 63.3242H926.169L954.202 234.026Z" fill="black"/>
</svg>
