<svg width="1200" height="250" viewBox="0 0 1200 250" fill="none" xmlns="http://www.w3.org/2000/svg">
<path d="M66.62 225.512C79.3422 225.512 89.6179 222.674 97.447 216.997C105.472 211.126 109.484 203.003 109.484 192.629C109.484 184.8 107.135 178.244 102.438 172.959C97.7406 167.674 91.8688 163.76 84.8226 161.215C77.9721 158.671 70.4367 155.833 62.2161 152.701C54.1913 149.57 46.6558 146.34 39.6097 143.013C32.7592 139.685 26.9853 134.499 22.2878 127.452C17.5904 120.406 15.2417 111.794 15.2417 101.616C15.2417 87.1326 20.4284 75.7805 30.802 67.5599C41.3712 59.1437 55.3657 54.9355 72.7854 54.9355C92.3581 54.9355 109.191 59.8287 123.283 69.6151L117.118 79.3036C104.591 70.6916 90.3029 66.3856 74.2533 66.3856C62.5097 66.3856 53.1148 69.0279 46.0687 74.3125C39.0225 79.4014 35.4994 86.5454 35.4994 95.7446C35.4994 104.944 38.7289 112.479 45.1879 118.351C51.6469 124.027 59.4759 128.431 68.6751 131.563C77.8743 134.499 87.0734 137.728 96.2726 141.251C105.668 144.774 113.594 150.352 120.053 157.986C126.512 165.423 129.742 175.112 129.742 187.051C129.742 202.709 124.066 214.942 112.714 223.75C101.557 232.558 86.4863 236.962 67.5008 236.962C42.8392 236.962 23.6579 231.579 9.95703 220.814L16.416 210.832C29.7255 220.618 46.4601 225.512 66.62 225.512Z" fill="white"/>
<path d="M1173.71 9.95703L1171.31 24.7227H1032.28L1034.68 9.95703H1173.71Z" fill="white"/>
<path d="M367.322 234.027H341.779L325.328 198.003H222.592L206.141 234.027H193.222L272.884 63.3242H287.66L367.322 234.027ZM229.335 183.236L227.821 186.553H320.1L318.586 183.236L313.595 171.786L274.253 85.7646L229.335 183.236Z" fill="white"/>
<path d="M672.28 234.026H648.539L622.218 77.1391L548.484 239.147H543.189L469.786 73.9912L443.808 234.026H432.359L464.451 36.668H476.468L551.806 205.45L627.789 36.668H639.868L672.28 234.026Z" fill="white"/>
<path d="M1190.04 234.026H1164.5L1141.31 183.235L1136.32 171.784L1096.97 85.7619L1057.34 171.784L1052.06 183.235L1028.86 234.026H1015.94L1095.6 63.3242H1110.38L1190.04 234.026Z" fill="white"/>
<path d="M954.202 234.026H932.183L909.87 101.029L847.335 238.429H841.757L779.516 98.3863L757.497 234.026H746.046L773.803 63.3242H785.677L849.684 206.721L914.24 63.3242H926.169L954.202 234.026Z" fill="white"/>
</svg>
