<?xml version="1.0" encoding="UTF-8"?>
<svg id="Layer_1" data-name="Layer 1" xmlns="http://www.w3.org/2000/svg" viewBox="0 0 1180.08 229.19">
  <defs>
    <style>
      .cls-1 {
        fill: #fff;
      }
    </style>
  </defs>
  <path class="cls-1" d="M56.66,215.55c12.72,0,23-2.84,30.83-8.51,8.03-5.87,12.04-13.99,12.04-24.37,0-7.83-2.35-14.38-7.05-19.67-4.7-5.29-10.57-9.2-17.62-11.74-6.85-2.54-14.39-5.38-22.61-8.51-8.02-3.13-15.56-6.36-22.61-9.69-6.85-3.33-12.62-8.51-17.32-15.56-4.7-7.05-7.05-15.66-7.05-25.84,0-14.48,5.19-25.84,15.56-34.06,10.57-8.42,24.56-12.62,41.98-12.62,19.57,0,36.41,4.89,50.5,14.68l-6.17,9.69c-12.53-8.61-26.82-12.92-42.86-12.92-11.74,0-21.14,2.64-28.18,7.93-7.05,5.09-10.57,12.23-10.57,21.43s3.23,16.73,9.69,22.61c6.46,5.68,14.29,10.08,23.49,13.21,9.2,2.94,18.4,6.16,27.6,9.69,9.4,3.52,17.32,9.1,23.78,16.73,6.46,7.44,9.69,17.13,9.69,29.07,0,15.66-5.68,27.89-17.03,36.7-11.16,8.81-26.23,13.21-45.21,13.21-24.66,0-43.84-5.38-57.54-16.15l6.46-9.98c13.31,9.79,30.04,14.68,50.2,14.68Z"/>
  <path class="cls-1" d="M1163.75,0l-2.4,14.77h-139.03l2.4-14.77h139.03Z"/>
  <path class="cls-1" d="M357.36,224.07h-25.54l-16.45-36.02h-102.74l-16.45,36.02h-12.92l79.66-170.7h14.78l79.66,170.7ZM219.38,173.28l-1.51,3.32h92.28l-1.51-3.32-4.99-11.45-39.34-86.02-44.92,97.47Z"/>
  <path class="cls-1" d="M662.32,224.07h-23.74l-26.32-156.89-73.73,162.01h-5.29l-73.4-165.16-25.98,160.03h-11.45l32.09-197.36h12.02l75.34,168.78,75.98-168.78h12.08l32.41,197.36Z"/>
  <path class="cls-1" d="M1180.08,224.07h-25.54l-23.19-50.79-4.99-11.45-39.35-86.02-39.63,86.02-5.28,11.45-23.2,50.79h-12.92l79.66-170.7h14.78l79.66,170.7Z"/>
  <path class="cls-1" d="M944.24,224.07h-22.02l-22.31-133-62.53,137.4h-5.58l-62.24-140.04-22.02,135.64h-11.45l27.76-170.7h11.87l64.01,143.4,64.56-143.4h11.93l28.03,170.7Z"/>
</svg>